<svg id="Calque_1" data-name="Calque 1" xmlns="http://www.w3.org/2000/svg" viewBox="0 0 230.79 180.35"><defs><style>.cls-1{fill:#fff;}.cls-2{fill:red;}.cls-3{fill:#26448d;}</style></defs><rect class="cls-1" x="126.41" y="1.33" width="102.43" height="122.14"/><path class="cls-2" d="M230.79,0H0V125.39H131v0h99.82Zm-3.47,122H131V3.42h96.35Z"/><path class="cls-1" d="M215.31,84l-11.22-6.47,9.32-2.5a3.73,3.73,0,0,0-1.93-7.2L195,72.28,178.37,62.7,195,53.12l16.52,4.42a3.72,3.72,0,0,0,1.93-7.19l-9.32-2.5,11.22-6.48a3.73,3.73,0,0,0-3.73-6.45l-11.22,6.47,2.5-9.32a3.73,3.73,0,1,0-7.2-1.92l-4.42,16.51-16.6,9.58V37.08L186.74,25a3.73,3.73,0,1,0-5.27-5.27l-6.83,6.83v-13a3.73,3.73,0,1,0-7.45,0v13l-6.82-6.83A3.73,3.73,0,0,0,155.1,25l12.09,12.09V56.24L150.6,46.66l-4.43-16.51A3.72,3.72,0,1,0,139,32.07l2.49,9.32-11.22-6.47a3.72,3.72,0,1,0-3.72,6.45l11.22,6.48-9.32,2.5a3.72,3.72,0,1,0,1.93,7.19l16.51-4.42,16.6,9.58-16.6,9.58-16.51-4.43a3.73,3.73,0,1,0-1.93,7.2l9.32,2.5L126.53,84a3.73,3.73,0,1,0,3.72,6.46L141.47,84,139,93.32a3.72,3.72,0,1,0,7.19,1.93l4.43-16.52,16.59-9.58V88.31L155.1,100.4a3.73,3.73,0,0,0,5.27,5.27l6.82-6.82v13a3.73,3.73,0,0,0,7.45,0v-13l6.83,6.82a3.73,3.73,0,1,0,5.27-5.27l-12.1-12.09V69.15l16.6,9.58,4.42,16.52a3.73,3.73,0,0,0,7.2-1.93L200.36,84l11.22,6.48A3.73,3.73,0,0,0,215.31,84Z"/><path class="cls-3" d="M170.92,116.22a4.42,4.42,0,0,1-4.42-4.41V100.52l-5.64,5.64a4.52,4.52,0,0,1-6.25,0,4.43,4.43,0,0,1,0-6.25L166.5,88V70.35l-15.31,8.84-4.35,16.24a4.42,4.42,0,0,1-8.53-2.29l2.06-7.7-9.77,5.64a4.42,4.42,0,1,1-4.42-7.66L136,77.78l-7.7-2.06a4.42,4.42,0,1,1,2.29-8.54l16.24,4.35,15.3-8.83-15.3-8.84-16.24,4.35a4.42,4.42,0,0,1-5.42-3.12,4.42,4.42,0,0,1,3.13-5.42l7.7-2.06L126.18,42a4.42,4.42,0,1,1,4.42-7.66L140.37,40l-2.06-7.71a4.36,4.36,0,0,1,.44-3.35,4.41,4.41,0,0,1,6-1.62A4.36,4.36,0,0,1,146.84,30l4.35,16.24L166.5,55V37.37L154.61,25.48a4.41,4.41,0,0,1,0-6.25,4.52,4.52,0,0,1,6.25,0l5.64,5.64V13.59a4.42,4.42,0,0,1,8.84,0V24.87L181,19.23a4.42,4.42,0,0,1,6.25,6.25L175.34,37.37V55l15.3-8.83L195,30a4.42,4.42,0,0,1,8.54,2.28L201.47,40l9.77-5.64A4.42,4.42,0,1,1,215.66,42l-9.78,5.64,7.71,2.06a4.43,4.43,0,0,1,3.12,5.42,4.42,4.42,0,0,1-5.41,3.12l-16.24-4.35-15.3,8.84,15.3,8.83,16.24-4.35a4.42,4.42,0,0,1,2.29,8.54l-7.71,2.06,9.78,5.64a4.42,4.42,0,0,1-4.42,7.66l-9.77-5.65,2.06,7.71A4.42,4.42,0,0,1,195,95.43l-4.35-16.24-15.3-8.84V88l11.89,11.89a4.42,4.42,0,0,1-6.25,6.25l-5.64-5.64v11.29A4.43,4.43,0,0,1,170.92,116.22Zm-3-19v14.63a3,3,0,0,0,6.07,0V97.18l8,8a3,3,0,1,0,4.29-4.29L174,88.6V68l17.88,10.32,4.5,16.8a3,3,0,0,0,5.86-1.57l-2.93-10.94,12.67,7.32a3,3,0,0,0,3-5.26L202.3,77.31l10.93-2.93a3,3,0,1,0-1.57-5.86L194.87,73,177,62.7l17.89-10.32,16.79,4.49a3,3,0,0,0,2.3-.3,3,3,0,0,0,1.42-1.84A3.05,3.05,0,0,0,213.23,51L202.3,48.09,215,40.77a3,3,0,0,0-3-5.26l-12.67,7.32,2.93-10.93a3,3,0,1,0-5.86-1.58l-4.5,16.8L174,57.44V36.8l12.3-12.3a3,3,0,0,0,0-4.29,3.12,3.12,0,0,0-4.29,0l-8,8V13.59a3,3,0,1,0-6.07,0V28.22l-8-8a3.11,3.11,0,0,0-4.29,0,3.05,3.05,0,0,0-.89,2.15,3,3,0,0,0,.89,2.14l12.29,12.3V57.44L150,47.12l-4.5-16.8a3,3,0,0,0-5.86,1.57l2.93,10.94L129.9,35.51a3,3,0,0,0-3,5.26l12.67,7.32L128.61,51a3,3,0,0,0-2.15,3.72,3,3,0,0,0,1.42,1.84,2.94,2.94,0,0,0,2.3.3L147,52.38,164.85,62.7,147,73l-16.79-4.5a3,3,0,1,0-1.57,5.86l10.93,2.93-12.67,7.31a3,3,0,0,0,3,5.26l12.67-7.32L139.64,93.5a3,3,0,0,0,5.86,1.57l4.5-16.8L167.88,68V88.6l-12.29,12.29a3,3,0,0,0,0,4.29,3.1,3.1,0,0,0,4.29,0Z"/><path class="cls-3" d="M112.24,63.26c-1.29-1-2.67-2-4.12-3,1.29-1.14,2.51-2.27,3.64-3.4,11.13-11.12,10.59-17.76,8.18-21.37s-8.79-7.34-25.5-4.56c-2.9.48-5.93,1.13-9,1.94a74.86,74.86,0,0,0-2.58-7.75c-5.58-13.88-12.5-16.8-17.33-16.8s-11.75,2.92-17.32,16.8a75.88,75.88,0,0,0-3.35,10.78A112.93,112.93,0,0,0,32,34.48C15,33.61,9.26,38,7.41,41.86S6,52.36,18.73,62.13q1.93,1.5,4.11,3c-1.29,1.13-2.5,2.27-3.63,3.4C8.07,79.62,8.61,86.25,11,89.87c1.83,2.73,5.93,5.52,15.05,5.52a65,65,0,0,0,10.46-1c2.89-.48,5.92-1.14,9-1.94a70.9,70.9,0,0,0,2.58,7.74c5.57,13.89,12.5,16.8,17.32,16.8s11.75-2.91,17.33-16.8a76.63,76.63,0,0,0,3.35-10.77A112.55,112.55,0,0,0,99,90.91c1.47.08,2.87.12,4.18.12,13.77,0,18.73-4,20.42-7.5C125.41,79.68,125,73,112.24,63.26Zm-7.37-28.58c5.31,0,9,1.09,10.37,3.2,2.49,3.73-1.75,11.16-11.51,19.6a144.73,144.73,0,0,0-15.33-8,107.59,107.59,0,0,0-1.89-12A75,75,0,0,1,104.87,34.68ZM74.56,76.28c-2.63,1.31-5.23,2.53-7.78,3.66q-4.05-1.25-8.26-2.75-5.69-2.06-10.79-4.25c-.26-3.27-.4-6.69-.4-10.24,0-3.07.11-6.05.3-8.91q4.15-2.37,8.78-4.68,3.95-2,7.78-3.66c2.69.84,5.45,1.75,8.25,2.76q5.7,2,10.79,4.25c.27,3.27.41,6.69.41,10.24,0,3.07-.11,6-.31,8.9C80.56,73.18,77.64,74.75,74.56,76.28Zm8.22,1.21q-.41,3.3-1,6.36c-2.54-.54-5.18-1.16-7.9-1.87,1.12-.53,2.24-1.07,3.36-1.63C79.15,79.42,81,78.46,82.78,77.49ZM60,82.76q-5.38,2.11-10.36,3.64c-.53-2.52-1-5.2-1.35-8,2.65,1.09,5.36,2.14,8.14,3.13C57.63,82,58.82,82.36,60,82.76ZM42.12,70.39c-4-1.89-7.61-3.83-10.87-5.77A130.45,130.45,0,0,1,42,57.15c-.07,1.83-.11,3.68-.11,5.55C41.9,65.29,42,67.86,42.12,70.39ZM48.19,47.9q.39-3.3,1-6.35c2.55.53,5.19,1.15,7.9,1.87-1.12.53-2.23,1.07-3.35,1.63Q50.89,46.44,48.19,47.9ZM71,42.63q5.39-2.1,10.36-3.64c.53,2.53,1,5.2,1.35,8-2.65-1.09-5.37-2.13-8.14-3.13C73.34,43.45,72.15,43,71,42.63ZM88.85,55c4,1.9,7.61,3.84,10.87,5.77-3.17,2.46-6.77,5-10.76,7.47.07-1.83.11-3.68.11-5.54Q89.07,58.8,88.85,55ZM65.48,13.05c5.4,0,11.19,8.06,14.74,21.31a161.73,161.73,0,0,0-16.42,6c-4.66-1.37-9.25-2.52-13.7-3.44C53.57,22.16,59.75,13.05,65.48,13.05ZM12.42,43.66c1.43-3,7-4.62,15.46-4.62a98.12,98.12,0,0,1,16,1.5c-.63,3.41-1.11,7-1.44,10.64A139.86,139.86,0,0,0,26.77,61.81C15.84,54.54,10.51,47.65,12.42,43.66Zm3.31,43.86c-2.5-3.74,1.75-11.17,11.5-19.61a143.85,143.85,0,0,0,15.33,8,109.78,109.78,0,0,0,1.89,12C29.4,91.86,18.43,91.56,15.73,87.52Zm49.75,24.82c-5.39,0-11.18-8.06-14.73-21.31a161.73,161.73,0,0,0,16.42-6c4.66,1.37,9.25,2.52,13.69,3.44C77.4,103.23,71.22,112.34,65.48,112.34Zm53.06-30.61c-2.2,4.58-14.3,6-31.41,3.12.63-3.4,1.11-7,1.44-10.64a139.69,139.69,0,0,0,15.62-10.63C115.13,70.85,120.46,77.75,118.54,81.73Z"/><ellipse class="cls-3" cx="65.48" cy="62.7" rx="10.44" ry="9.02"/><path class="cls-3" d="M26.62,180.35A22.83,22.83,0,0,1,3.42,157.1V157c0-12.86,9.69-23.39,23.59-23.39,8.52,0,13.63,2.84,17.83,7l-6.34,7.3c-3.48-3.17-7-5.11-11.56-5.11-7.62,0-13.11,6.33-13.11,14.09V157c0,7.75,5.36,14.21,13.11,14.21,5.17,0,8.33-2.07,11.89-5.3l6.33,6.4C40.51,177.25,35.34,180.35,26.62,180.35Z"/><path class="cls-3" d="M51.69,179.58V169.24H62.15v10.34Z"/><path class="cls-2" d="M81.54,143.4V153h21.57v9H81.54v17.51h-10V134.36H106v9Z"/><path class="cls-2" d="M106.09,179.58V169.24h10.47v10.34Z"/><path class="cls-3" d="M144.59,180.35A22.83,22.83,0,0,1,121.4,157.1V157c0-12.86,9.69-23.39,23.58-23.39,8.53,0,13.63,2.84,17.83,7l-6.33,7.3c-3.49-3.17-7-5.11-11.56-5.11-7.63,0-13.12,6.33-13.12,14.09V157c0,7.75,5.36,14.21,13.12,14.21,5.17,0,8.33-2.07,11.89-5.3l6.33,6.4C158.49,177.25,153.32,180.35,144.59,180.35Z"/><path class="cls-3" d="M169.66,179.58V169.24h10.47v10.34Z"/><path class="cls-2" d="M211.08,179.58H189.56V134.36h21c9.24,0,14.93,4.58,14.93,11.69v.13c0,5.1-2.72,7.94-6,9.75,5.23,2,8.46,5,8.46,11.12v.12C228,175.44,221.29,179.58,211.08,179.58Zm4.52-31.85c0-3-2.33-4.65-6.52-4.65h-9.82v9.56h9.17c4.39,0,7.17-1.42,7.17-4.78Zm2.52,18.09c0-3-2.26-4.91-7.37-4.91H199.26v10h11.82c4.39,0,7-1.55,7-4.91Z"/></svg>